# xmcd CD database file
#
# Track frame offsets:
#	150
#	22139
#	46411
#	67448
#	82477
#	106315
#	128978
#	154243
#	165515
#	183170
#	192425
#	218009
#	242392
#	265658
#	300188
#	315402
#
# Disc length: 4512 seconds
#
# Revision: 0
# Processed by: cddbd v1.5.1PL2 Copyright (c) Steve Scherf et al.
# Submitted via: CDex 1.51
#
DISCID=db119e10
DTITLE=Tom Waits - Live At The House Of Blues - 8/13/06
DYEAR=1900
DGENRE=Blues
TTITLE0=Goin' Out West
TTITLE1=219
TTITLE2=Way Down In The Hole
TTITLE3=November
TTITLE4=Blue Valentines
TTITLE5=Big Black Mariah
TTITLE6=On The Nickel
TTITLE7=Cemetery Polka
TTITLE8=I Wish I Was In New Orleans
TTITLE9=Johnsburg, Illinois
TTITLE10=Metropolitan Glide
TTITLE11=Heartattack And Vine/Spoonful
TTITLE12=Make It Rain
TTITLE13=Circus
TTITLE14=Singapore
TTITLE15=It Rains On Me
EXTD=
EXTT0=
EXTT1=
EXTT2=
EXTT3=
EXTT4=
EXTT5=
EXTT6=
EXTT7=
EXTT8=
EXTT9=
EXTT10=
EXTT11=
EXTT12=
EXTT13=
EXTT14=
EXTT15=
PLAYORDER=
